<svg viewBox="0 0 76 68" fill="none" xmlns="http://www.w3.org/2000/svg"><path d="M71.71 45.33h-67.42a4.3 4.3 0 0 0-4.29 4.24v3.45c0 2.27 1.9 4.14 4.29 4.14h1v.98a9.84 9.84 0 0 0 9.87 9.76h45.68a9.84 9.84 0 0 0 9.87-9.76v-.98h1a4.3 4.3 0 0 0 4.29-4.24v-3.45c0-2.17-1.9-4.14-4.29-4.14Zm-3.89 12.81c0 3.75-3.09 6.8-6.88 6.8h-45.88a6.85 6.85 0 0 1-6.88-6.8v-.98h59.64v.98Zm5.19-5.22c0 .7-.6 1.28-1.3 1.28h-67.42c-.7 0-1.3-.59-1.3-1.28v-3.45c0-.59.6-1.18 1.3-1.18h67.52c.7 0 1.3.59 1.3 1.28v3.35h-.1Zm-56.85-15.57 5.38 3.94 5.49-3.94 5.48 3.94 5.49-3.94 5.39 3.94 5.48-3.94 5.49 3.94 5.48-3.94 5.49 3.94 6.28-4.63-1.7-2.37-4.58 3.26-5.49-3.95-5.48 3.95-5.49-3.95-5.48 3.95-5.39-3.95-5.49 3.95-5.48-3.95-5.49 3.95-5.38-3.95-5.49 3.95-4.59-3.26-1.8 2.37 6.4 4.63 5.48-3.94Zm54.55-6.7c0-.6.1-2.56 0-2.96-.7-15.37-15.06-27.69-32.71-27.69s-32.12 12.32-32.81 27.7v2.95h65.52Zm-32.71-27.7c15.96 0 29.12 11.04 29.72 24.74h-59.54c.7-13.7 13.86-24.73 29.82-24.73Z" fill="#81B3D2"/><path d="M38 16.75c1.1 0 2-.88 2-1.97 0-1.09-.9-1.97-2-1.97s-2 .88-2 1.97c0 1.1.9 1.97 2 1.97Zm-7.98-4.83c1.1 0 2-.88 2-1.97 0-1.09-.9-1.97-2-1.97s-2 .88-2 1.97c0 1.1.9 1.97 2 1.97Zm15.96 0c1.1 0 2-.88 2-1.97 0-1.09-.9-1.97-2-1.97s-2 .88-2 1.97c0 1.1.9 1.97 2 1.97Z" fill="#81B3D2"/></svg>