<svg viewBox="0 0 75 72" fill="none" xmlns="http://www.w3.org/2000/svg"><path d="M29.62 64.94h16.06v-23.77h-16.06v23.77Zm13.15-2.89h-10.24v-18h10.14v18h.1Z" fill="#81B3D2"/><path d="m72.9 39.18 2.1-2.09-9.94-9.84v-26.85h-13.86v13.12l-13.75-13.52-37.45 37.2 2.1 2.08 7.84-7.76v37.6h-3.92v2.88h64.16v-2.88h-5.12v-37.7l7.83 7.76Zm-18.78-35.8h7.93v20.98l-7.93-7.85v-13.13Zm8.03 65.64h-49.2v-40.48l24.5-24.36 24.6 24.36v40.48h.1Z" fill="#81B3D2"/><path d="M29.92 27.05a7.78 7.78 0 0 0 15.56 0 7.72 7.72 0 0 0-7.83-7.66 7.63 7.63 0 0 0-7.73 7.66Zm7.73-4.97a5.01 5.01 0 0 1 5.02 4.97 5.01 5.01 0 0 1-10.04 0 5.07 5.07 0 0 1 5.02-4.97Zm-17.67 19.09h-3.01v3.88h3.01v-3.88Zm5.92 0h-3v3.88h3v-3.88Zm-5.92 5.97h-3.01v3.88h3.01v-3.88Zm5.92 0h-3v3.88h3v-3.88Zm26.1-5.97h-3v3.88h3v-3.88Zm6.03 0h-3.01v3.88h3.01v-3.88Zm-6.03 5.97h-3v3.88h3v-3.88Zm6.03 0h-3.01v3.88h3.01v-3.88Z" fill="#81B3D2"/></svg>